<svg width="19" height="27" viewBox="0 0 19 27" fill="none" xmlns="http://www.w3.org/2000/svg">
<path fill-rule="evenodd" clip-rule="evenodd" d="M9.30523 26C14.3384 26 18.4186 22.5248 18.4186 17.2939C18.4186 16.7555 18.3739 16.2866 18.2906 15.8748C18.0128 13.1728 16.8582 10.4653 15.1716 8.83532C14.9541 8.62506 14.5986 8.73944 14.4988 9.02471C14.2147 9.83671 13.9185 10.5362 13.6134 11.1397C13.4685 11.4263 13.1092 11.5237 12.8428 11.3437C11.028 10.1173 9.35716 7.95304 8.88868 2.71636C8.83554 2.12245 8.20534 1.78034 7.74353 2.15906C4.34089 4.94961 0 12.5706 0 17.2939C0 22.5248 4.27206 26 9.30523 26Z" fill="#1C1C1E"/>
<path d="M13.4146 17.7384C13.8719 19.9373 12.4601 21.7549 10.3438 22.195C8.22751 22.6351 6.12748 21.5477 5.67021 19.3488C5.29355 17.5375 6.22506 14.3965 7.29242 12.7429C7.5664 12.3184 8.13058 12.4765 8.30069 12.9522C9.94108 17.5396 12.7919 14.7441 13.4146 17.7384Z" fill="#4B4B4B"/>
</svg>
