<svg width="20" height="24" viewBox="0 0 20 24" fill="none" xmlns="http://www.w3.org/2000/svg">
<path fill-rule="evenodd" clip-rule="evenodd" d="M15.0834 23.3066C14.8592 23.3152 14.6875 23.2598 14.568 23.1409C14.4098 22.9835 14.3308 22.7862 14.3308 22.5502V18.3942C14.3308 17.1205 14.0022 16.188 13.3451 15.5973C14.0655 15.5185 14.7132 15.4 15.2884 15.2422C15.6484 15.1435 16.016 15.0062 16.3911 14.8303C16.615 14.7254 16.8416 14.6067 17.0708 14.474C17.6838 14.1196 18.1958 13.6829 18.607 13.1641C19.0176 12.645 19.3524 11.9561 19.6114 11.0957C19.8701 10.2354 20 9.24749 20 8.1312C20 6.54245 19.5004 5.1897 18.502 4.07341C18.9698 2.87853 18.9191 1.53907 18.3506 0.0550327C17.9965 -0.0631946 17.4842 0.00909297 16.8143 0.27167C16.1448 0.534247 15.5629 0.823172 15.0703 1.13845L14.3498 1.61113C13.174 1.26973 11.9603 1.09904 10.7091 1.09904C9.45786 1.09904 8.24447 1.26973 7.06874 1.61113C6.8664 1.46678 6.59795 1.2891 6.26285 1.07922C5.92775 0.869337 5.40019 0.616218 4.67962 0.320763C3.95927 0.025307 3.41564 -0.0634198 3.04906 0.0548075C2.49284 1.53884 2.44866 2.8783 2.91641 4.07318C1.91784 5.18948 1.4185 6.54177 1.4185 8.1312C1.4185 9.24726 1.54801 10.232 1.80712 11.0858C2.06602 11.9392 2.39797 12.6288 2.80232 13.1542C3.20668 13.6793 3.71546 14.1194 4.32878 14.4738C4.94167 14.8287 5.53588 15.0845 6.11088 15.2424C6.6861 15.3998 7.33383 15.5183 8.05418 15.5969C7.54876 16.0695 7.23906 16.7458 7.1253 17.6261C6.85967 17.7574 6.57526 17.856 6.27219 17.9218C5.96868 17.9871 5.6085 18.02 5.19144 18.02C4.77439 18.02 4.36026 17.879 3.94961 17.5966C3.53863 17.3142 3.18823 16.9037 2.89731 16.3652C2.65708 15.9452 2.35064 15.6038 1.97787 15.3413C1.60478 15.0785 1.29215 14.9213 1.03933 14.8686L0.660267 14.8096C0.39464 14.8096 0.211621 14.8384 0.110342 14.8976C0.00906337 14.9571 -0.0224167 15.0325 0.0155765 15.1246C0.0534611 15.2167 0.110342 15.3086 0.186112 15.4005C0.26199 15.4921 0.344163 15.5714 0.432525 15.6369L0.565284 15.7358C0.843394 15.8671 1.11825 16.1164 1.39006 16.4841C1.66188 16.8516 1.86085 17.187 1.98721 17.4887L2.17674 17.9418C2.34119 18.4406 2.6192 18.8446 3.01085 19.1531C3.40272 19.4619 3.82608 19.6587 4.28124 19.7436C4.73629 19.8294 5.1757 19.8756 5.59895 19.8816C6.02241 19.8879 6.37325 19.8654 6.65125 19.8125L7.08741 19.7341C7.08741 20.2329 7.09045 20.8173 7.09697 21.487L7.10554 22.4149L7.10652 22.5506C7.10652 22.7869 7.02445 22.9841 6.86011 23.1416C6.73614 23.26 6.56191 23.3154 6.33732 23.3073C7.71745 23.7572 9.18605 24 10.7094 24C12.2334 24 13.7027 23.757 15.0834 23.3066Z" fill="#D1D1D2"/>
</svg>
