<svg width="238" height="218" viewBox="0 0 238 218" fill="none" xmlns="http://www.w3.org/2000/svg">
<g filter="url(#filter0_d_1987_2069)">
<path d="M75.1982 133.789L81.892 140.483L78.8054 144.268C66.1137 159.833 51.8759 174.071 36.3105 186.763L32.5251 189.85L25.8313 183.156L28.9179 179.37C41.6096 163.805 55.8475 149.567 71.4128 136.876L75.1982 133.789Z" fill="url(#paint0_radial_1987_2069)"/>
<path d="M191.503 57.8211L190.666 25.1888L158.034 24.3521L49.2592 133.126L82.7282 166.595L191.503 57.8211Z" fill="#E8E8E8"/>
<path d="M160.544 55.3106L158.034 24.3517L49.2594 133.126L65.994 149.861L160.544 55.3106Z" fill="white"/>
<path d="M160.545 55.1369L191.504 57.6472L82.7293 166.422L65.9947 149.687L160.545 55.1369Z" fill="#F4F4F4"/>
<rect x="46.749" y="118.728" width="70.9985" height="17.7496" rx="8.87482" transform="rotate(45 46.749 118.728)" fill="url(#paint1_radial_1987_2069)"/>
<rect x="27.4609" y="176.204" width="16.5663" height="11.8331" rx="5.91655" transform="rotate(45 27.4609 176.204)" fill="#FBCF7A"/>
</g>
<g filter="url(#filter1_d_1987_2069)">
<path d="M162.801 133.789L156.108 140.483L159.194 144.268C171.886 159.833 186.124 174.071 201.689 186.763L205.474 189.85L212.168 183.156L209.082 179.37C196.39 163.805 182.152 149.567 166.587 136.876L162.801 133.789Z" fill="url(#paint2_radial_1987_2069)"/>
<path d="M46.4969 57.8211L47.3336 25.1888L79.9659 24.3521L188.74 133.126L155.271 166.595L46.4969 57.8211Z" fill="#E8E8E8"/>
<path d="M77.4559 55.3106L79.9662 24.3517L188.741 133.126L172.006 149.861L77.4559 55.3106Z" fill="white"/>
<path d="M77.4557 55.1371L46.4967 57.6474L155.271 166.422L172.006 149.687L77.4557 55.1371Z" fill="#F4F4F4"/>
<rect width="70.9985" height="17.7496" rx="8.87482" transform="matrix(-0.707107 0.707107 0.707107 0.707107 191.25 118.728)" fill="url(#paint3_radial_1987_2069)"/>
<rect width="16.5663" height="11.8331" rx="5.91655" transform="matrix(-0.707107 0.707107 0.707107 0.707107 210.539 176.205)" fill="#FBCF7A"/>
</g>
<defs>
<filter id="filter0_d_1987_2069" x="1.54443" y="8.35156" width="209.959" height="209.483" filterUnits="userSpaceOnUse" color-interpolation-filters="sRGB">
<feFlood flood-opacity="0" result="BackgroundImageFix"/>
<feColorMatrix in="SourceAlpha" type="matrix" values="0 0 0 0 0 0 0 0 0 0 0 0 0 0 0 0 0 0 127 0" result="hardAlpha"/>
<feOffset dy="4"/>
<feGaussianBlur stdDeviation="10"/>
<feComposite in2="hardAlpha" operator="out"/>
<feColorMatrix type="matrix" values="0 0 0 0 0 0 0 0 0 0 0 0 0 0 0 0 0 0 0.3 0"/>
<feBlend mode="normal" in2="BackgroundImageFix" result="effect1_dropShadow_1987_2069"/>
<feBlend mode="normal" in="SourceGraphic" in2="effect1_dropShadow_1987_2069" result="shape"/>
</filter>
<filter id="filter1_d_1987_2069" x="26.4966" y="8.35156" width="209.958" height="209.484" filterUnits="userSpaceOnUse" color-interpolation-filters="sRGB">
<feFlood flood-opacity="0" result="BackgroundImageFix"/>
<feColorMatrix in="SourceAlpha" type="matrix" values="0 0 0 0 0 0 0 0 0 0 0 0 0 0 0 0 0 0 127 0" result="hardAlpha"/>
<feOffset dy="4"/>
<feGaussianBlur stdDeviation="10"/>
<feComposite in2="hardAlpha" operator="out"/>
<feColorMatrix type="matrix" values="0 0 0 0 0 0 0 0 0 0 0 0 0 0 0 0 0 0 0.3 0"/>
<feBlend mode="normal" in2="BackgroundImageFix" result="effect1_dropShadow_1987_2069"/>
<feBlend mode="normal" in="SourceGraphic" in2="effect1_dropShadow_1987_2069" result="shape"/>
</filter>
<radialGradient id="paint0_radial_1987_2069" cx="0" cy="0" r="1" gradientUnits="userSpaceOnUse" gradientTransform="translate(53.8617 161.819) rotate(135) scale(34.9076 8.28316)">
<stop stop-color="#FFD687"/>
<stop offset="1" stop-color="#FBCF7A"/>
</radialGradient>
<radialGradient id="paint1_radial_1987_2069" cx="0" cy="0" r="1" gradientUnits="userSpaceOnUse" gradientTransform="translate(82.2483 127.603) rotate(90) scale(8.87482 35.4993)">
<stop stop-color="#FFD687"/>
<stop offset="1" stop-color="#FBCF7A"/>
</radialGradient>
<radialGradient id="paint2_radial_1987_2069" cx="0" cy="0" r="1" gradientUnits="userSpaceOnUse" gradientTransform="translate(184.138 161.819) rotate(45) scale(34.9076 8.28316)">
<stop stop-color="#FFD687"/>
<stop offset="1" stop-color="#FBCF7A"/>
</radialGradient>
<radialGradient id="paint3_radial_1987_2069" cx="0" cy="0" r="1" gradientUnits="userSpaceOnUse" gradientTransform="translate(35.4993 8.87482) rotate(90) scale(8.87482 35.4993)">
<stop stop-color="#FFD687"/>
<stop offset="1" stop-color="#FBCF7A"/>
</radialGradient>
</defs>
</svg>
