<svg width="110" height="35" viewBox="0 0 110 35" fill="none" xmlns="http://www.w3.org/2000/svg">
<path d="M19.4541 21.6668L23.5952 21.6668C23.5302 23.4933 22.7943 25.0022 21.5821 26.0594C20.3632 27.1224 18.6317 27.7548 16.5449 27.7548C14.0241 27.7548 11.9956 26.7701 10.5857 24.9901C9.16546 23.1972 8.33977 20.5534 8.33977 17.1949C8.33977 13.8977 9.1176 11.3437 10.4801 9.62474C11.8307 7.92072 13.7955 6.98608 16.3007 6.98608C17.8021 6.98608 19.082 7.31441 20.167 7.96074C21.2525 8.6074 22.1722 9.58982 22.9257 10.9427L22.9308 10.9519L22.9364 10.961C23.377 11.6788 23.8852 12.229 24.5031 12.5966C25.1242 12.9661 25.8213 13.1305 26.6047 13.1305C27.5944 13.1305 28.4586 12.8005 29.0778 12.1953C29.6977 11.5893 30.0361 10.7422 30.0361 9.77773C30.0361 9.07198 29.9104 8.36088 29.4988 7.5216C27.5946 3.41638 22.5641 0.500001 16.2785 0.500001C11.4584 0.500001 7.4978 2.07572 4.74447 4.99652C1.99438 7.9139 0.499999 12.1185 0.499999 17.2827C0.499999 22.5218 1.99334 26.7709 4.76366 29.714C7.53744 32.6607 11.5378 34.2409 16.4339 34.2409C21.0534 34.2409 24.7423 32.8539 27.2785 30.3822C29.8155 27.9096 31.1464 24.4028 31.1464 20.2671L31.1464 19.7843C31.1464 18.6041 30.8072 17.6044 30.119 16.8981C29.4292 16.1901 28.4493 15.8391 27.2931 15.8391L19.4541 15.8391C18.5544 15.8391 17.7541 16.0892 17.1717 16.6034C16.5818 17.1243 16.267 17.8712 16.267 18.753C16.267 19.6379 16.5895 20.3842 17.1811 20.9035C17.765 21.416 18.564 21.6668 19.4541 21.6668ZM53.7591 31.4172L53.7601 31.4189L60.2804 28.3646L60.712 28.1122L60.7119 28.112C60.7117 28.1117 60.7115 28.1113 60.7113 28.111L56.3719 20.6894C59.7872 19.0067 61.6687 15.5714 61.6687 11.643C61.6687 8.39765 60.5697 5.72767 58.468 3.87539C56.3744 2.03032 53.3452 1.04861 49.5766 1.04861L39.8055 1.04861C38.6493 1.04861 37.6694 1.39965 36.9796 2.10763C36.2915 2.8139 35.9522 3.81361 35.9522 4.99387L35.9522 30.2298C35.9522 31.4124 36.2984 32.4117 36.9888 33.1169C37.6804 33.8234 38.6592 34.1751 39.8055 34.1751C40.9617 34.1751 41.9416 33.824 42.6314 33.1161C43.3195 32.4098 43.6588 31.4101 43.6588 30.2298L43.6588 22.1277L48.5725 22.1277L53.7591 31.4172ZM97.8076 21.6668L101.949 21.6668C101.884 23.4933 101.148 25.0022 99.9357 26.0594C98.7168 27.1224 96.9853 27.7548 94.8985 27.7548C92.3777 27.7548 90.3492 26.7701 88.9392 24.9901C87.519 23.1972 86.6934 20.5534 86.6934 17.1949C86.6934 13.8977 87.4712 11.3437 88.8337 9.62474C90.1843 7.92072 92.1491 6.98608 94.6542 6.98608C96.1557 6.98608 97.4356 7.31441 98.5205 7.96074C99.6061 8.6074 100.526 9.58982 101.279 10.9427L101.284 10.9519L101.29 10.961C101.731 11.6788 102.239 12.229 102.857 12.5966C103.478 12.9661 104.175 13.1305 104.958 13.1305C105.948 13.1305 106.812 12.8005 107.431 12.1953C108.051 11.5893 108.39 10.7423 108.39 9.77773C108.39 9.07195 108.264 8.36081 107.852 7.52148C105.948 3.41632 100.918 0.500005 94.632 0.500005C89.812 0.500005 85.8514 2.07572 83.0981 4.99652C80.348 7.91391 78.8536 12.1185 78.8536 17.2827C78.8536 22.5218 80.3469 26.7709 83.1172 29.714C85.891 32.6607 89.8913 34.2409 94.7875 34.2409C99.407 34.2409 103.096 32.8539 105.632 30.3822C108.169 27.9096 109.5 24.4028 109.5 20.2671L109.5 19.7843C109.5 18.6041 109.161 17.6044 108.473 16.8981C107.783 16.1901 106.803 15.8391 105.647 15.8391L97.8076 15.8391C96.908 15.8391 96.1076 16.0892 95.5253 16.6034C94.9353 17.1243 94.6206 17.8712 94.6206 18.753C94.6206 19.6379 94.9431 20.3842 95.5347 20.9035C96.1186 21.416 96.9176 21.6668 97.8076 21.6668ZM43.6588 16.3219L43.6588 7.22747L48.866 7.22747C50.4335 7.22747 51.6563 7.6909 52.4828 8.46411C53.3058 9.23407 53.7845 10.3562 53.7845 11.7747C53.7845 13.2364 53.327 14.356 52.5301 15.1124C51.73 15.8719 50.5279 16.3219 48.9326 16.3219L43.6588 16.3219ZM70.3055 34.1312C71.4617 34.1312 72.4416 33.7802 73.1314 33.0722C73.8195 32.3659 74.1588 31.3662 74.1588 30.1859L74.1588 4.57693C74.1588 3.38697 73.8203 2.38179 73.1322 1.67232C72.4422 0.960828 71.4618 0.609725 70.3055 0.609725C69.1493 0.609725 68.1689 0.960828 67.4789 1.67232C66.7908 2.38179 66.4523 3.38697 66.4523 4.57693L66.4523 30.1859C66.4523 31.3662 66.7915 32.3659 67.4797 33.0722C68.1695 33.7802 69.1494 34.1312 70.3055 34.1312Z" fill="#FF8D8D" stroke="white"/>
<path d="M70.3533 34.0215C71.5094 34.0215 72.4893 33.6705 73.1791 32.9625C73.8673 32.2562 74.2065 31.2565 74.2065 30.0762L74.2065 4.46722C74.2065 3.27727 73.868 2.27208 73.1799 1.56262C72.4899 0.851124 71.5095 0.500021 70.3533 0.500021C69.197 0.500021 68.2166 0.851123 67.5266 1.56262C66.8385 2.27208 66.5 3.27727 66.5 4.46722L66.5 30.0762C66.5 31.2565 66.8393 32.2562 67.5274 32.9625C68.2172 33.6705 69.1971 34.0215 70.3533 34.0215Z" fill="url(#paint0_linear_256_1264)" stroke="white"/>
<path d="M39.8533 34.5C41.0094 34.5 41.9893 34.149 42.6791 33.441C43.3673 32.7347 43.7065 31.735 43.7065 30.5547L43.7065 21.9526L43.7065 17.1468L43.7065 7.05238L43.7065 5.22678C43.7065 3.09869 41.9814 1.37352 39.8533 1.37352C38.6971 1.37352 37.7172 1.72456 37.0274 2.43254C36.3393 3.13881 36 4.13852 36 5.31878L36 30.5547C36 31.7374 36.3461 32.7366 37.0366 33.4418C37.7282 34.1483 38.707 34.5 39.8533 34.5Z" fill="url(#paint1_linear_256_1264)" stroke="white"/>
<defs>
<linearGradient id="paint0_linear_256_1264" x1="70.3533" y1="1" x2="70.4444" y2="92.7591" gradientUnits="userSpaceOnUse">
<stop stop-color="#FFD687"/>
<stop offset="1" stop-color="#EA94FF"/>
</linearGradient>
<linearGradient id="paint1_linear_256_1264" x1="39.3533" y1="2" x2="39.4422" y2="92.6447" gradientUnits="userSpaceOnUse">
<stop stop-color="#FFD687"/>
<stop offset="1" stop-color="#EA94FF"/>
</linearGradient>
</defs>
</svg>
